<svg width="80" height="73" viewBox="0 0 80 73" fill="none" xmlns="http://www.w3.org/2000/svg">
<ellipse cx="39.5" cy="68" rx="39" ry="4.5" fill="#F2E8E6"/>
<path d="M59.4761 7.90894C47.9761 -3.59169 26.4877 -0.203411 18.9761 7.90894C11.4645 16.0213 7.86635 21.5087 2.4761 32.9083C-0.968098 45.4896 -0.078228 51.5186 6.4761 60.4083C13.9415 66.4923 18.5218 68.6273 27.4761 69.9083H49.9761C60.9325 68.8254 66.2366 66.5208 73.9761 58.9083C78.8613 52.9919 79.5524 48.0253 77.9761 36.9083C74.6603 25.5909 70.5235 19.2392 59.4761 7.90894Z" fill="#D0FAF0" stroke="#242424"/>
<path d="M22.5 24.4999C23.5 21.5 28.5 21 30 24.4999" stroke="#242424"/>
<path d="M49.9999 23.941C50.9999 20.9411 55.9999 20.4412 57.4999 23.941" stroke="#242424"/>
<path d="M35.5 31.5006C36.5 34.5005 41.5 35.0005 43 31.5006" stroke="#242424"/>
<ellipse cx="23" cy="27.5" rx="5.5" ry="2" fill="#F3D4E4"/>
<path d="M62.5 27.467C62.5 28.5716 60.0375 29.467 57 29.467C53.9624 29.467 51.5 28.5716 51.5 27.467C51.5 26.3625 53.9624 25.467 57 25.467C60.0375 25.467 62.5 26.3625 62.5 27.467Z" fill="#F3D4E4"/>
</svg>
