<svg width="80" height="71" viewBox="0 0 80 71" fill="none" xmlns="http://www.w3.org/2000/svg">
<path d="M59.4761 7.90894C47.9761 -3.59169 26.4877 -0.203411 18.9761 7.90894C11.4646 16.0213 7.86639 21.5087 2.47614 32.9083C-0.968062 45.4896 -0.0781918 51.5186 6.47614 60.4083C13.9416 66.4923 18.5218 68.6273 27.4761 69.9083H49.9761C60.9326 68.8254 66.2367 66.5208 73.9761 58.9083C78.8614 52.9919 79.5524 48.0253 77.9761 36.9083C74.6603 25.5909 70.5235 19.2392 59.4761 7.90894Z" fill="#FBCABE" stroke="#F0AB9B"/>
<path d="M34.9224 37.5C36.2557 32.5842 42.9224 31.7649 44.9224 37.5" stroke="black"/>
<circle cx="50.9224" cy="23.4967" r="1" fill="#242424"/>
<circle cx="27.9226" cy="23.4966" r="1" fill="#242424"/>
<path d="M23.9224 17.5L31.4224 20.5" stroke="black"/>
<path d="M55.4224 17.5L47.9224 20.5" stroke="black"/>
</svg>
