<svg width="80" height="71" viewBox="0 0 80 71" fill="none" xmlns="http://www.w3.org/2000/svg">
<path d="M59.4761 7.90894C47.9761 -3.59169 26.4877 -0.203411 18.9761 7.90894C11.4646 16.0213 7.86639 21.5087 2.47614 32.9083C-0.968062 45.4896 -0.0781918 51.5186 6.47614 60.4083C13.9416 66.4923 18.5218 68.6273 27.4761 69.9083H49.9761C60.9326 68.8254 66.2367 66.5208 73.9761 58.9083C78.8614 52.9919 79.5524 48.0253 77.9761 36.9083C74.6603 25.5909 70.5235 19.2392 59.4761 7.90894Z" fill="#D3F8BF" stroke="#B6E89B"/>
<path d="M53.594 18.765C51.7393 20.8079 50.6255 21.7243 48.2499 22.1473" stroke="#242424"/>
<circle cx="27.9219" cy="25.4542" r="0.5" stroke="#242424"/>
<circle cx="50.9219" cy="25.4542" r="0.5" stroke="#242424"/>
<path d="M44.8236 39.2743C39.8815 36.1743 37.2399 36.2384 32.9223 41.845" stroke="#242424"/>
<path d="M23.9224 22.4563C25.8124 19.5082 27.0894 18.6128 29.9224 18.9563" stroke="#242424"/>
</svg>
