<svg width="80" height="71" viewBox="0 0 80 71" fill="none" xmlns="http://www.w3.org/2000/svg">
<path d="M59.4761 7.90894C47.9761 -3.59169 26.4877 -0.203411 18.9761 7.90894C11.4646 16.0213 7.86639 21.5087 2.47614 32.9083C-0.968062 45.4896 -0.0781918 51.5186 6.47614 60.4083C13.9416 66.4923 18.5218 68.6273 27.4761 69.9083H49.9761C60.9326 68.8254 66.2367 66.5208 73.9761 58.9083C78.8614 52.9919 79.5524 48.0253 77.9761 36.9083C74.6603 25.5909 70.5235 19.2392 59.4761 7.90894Z" fill="#FFFAA0" stroke="#F7F064"/>
<path d="M22.5 24.4999C23.5 21.5 28.5 21 30 24.4999" stroke="#242424"/>
<path d="M50 23.941C51 20.9411 56 20.4412 57.5 23.941" stroke="#242424"/>
<path d="M35.5 31.5006C36.5 34.5005 41.5 35.0005 43 31.5006" stroke="#242424"/>
</svg>
