<svg width="80" height="71" viewBox="0 0 80 71" fill="none" xmlns="http://www.w3.org/2000/svg">
<path d="M59.4761 7.90894C47.9761 -3.59169 26.4877 -0.203411 18.9761 7.90894C11.4646 16.0213 7.86639 21.5087 2.47614 32.9083C-0.968062 45.4896 -0.0781918 51.5186 6.47614 60.4083C13.9416 66.4923 18.5218 68.6273 27.4761 69.9083H49.9761C60.9326 68.8254 66.2367 66.5208 73.9761 58.9083C78.8614 52.9919 79.5524 48.0253 77.9761 36.9083C74.6603 25.5909 70.5235 19.2392 59.4761 7.90894Z" fill="#F0DDF7" stroke="#E0C1EC"/>
<path d="M39.6569 36.5042C41.2405 36.4995 42.8319 37.2497 44.8066 38.643L44.2908 39.5042C42.3573 38.1399 40.9596 37.5281 39.6597 37.5319C38.3668 37.5357 37.0772 38.1499 35.3594 39.4911L34.8066 38.656C36.5773 37.2736 38.0663 36.5089 39.6569 36.5042Z" fill="black"/>
<path d="M27.8069 18.5C30.5624 18.3556 31.9767 18.0725 33.8069 16.5" stroke="black"/>
<path d="M52.8066 18.5C50.0512 18.3556 48.6369 18.0725 46.8066 16.5" stroke="black"/>
<path d="M27.8071 22.5038L33.8071 25.0038" stroke="black"/>
<path d="M28.3071 27.0038L33.3071 25.0038" stroke="black"/>
<path d="M51.8069 22.5005L45.8069 25.0005" stroke="black"/>
<path d="M51.3069 27.0005L46.3069 25.0005" stroke="black"/>
</svg>
